# xmcd CD database file
#
# Track frame offsets:
#	150
#	13762
#	26099
#	37413
#	51340
#	70049
#	80515
#	92929
#	109675
#	125806
#	145059
#	155536
#
# Disc length: 2223 seconds
#
# Revision: 1
# Processed by: cddbd v1.5.2PL0 Copyright (c) Steve Scherf et al.
# Submitted via: CDex 1.51
#
DISCID=ab08ad0c
DTITLE=Outrageous Cherry - Our Love Will Change the World
DYEAR=2005
DGENRE=Alternative
TTITLE0=Pretty Girls Go Insane
TTITLE1=(You're Not) A Nice Girl
TTITLE2=Detroit Blackout
TTITLE3=Unless
TTITLE4=You've Been Unkind
TTITLE5=Why Don't We Talk About Something Else
TTITLE6=Trouble Girl
TTITLE7=Our Love Will Change the World
TTITLE8=The Unchanging Frequency
TTITLE9=You're a Reflection of Infinite Chaos
TTITLE10=What Have You Invented Today?
TTITLE11=Calling
EXTD=YEAR: 2005
EXTT0=
EXTT1=
EXTT2=
EXTT3=
EXTT4=
EXTT5=
EXTT6=
EXTT7=
EXTT8=
EXTT9=
EXTT10=
EXTT11=
PLAYORDER=
